<svg width="720" height="520" viewBox="0 0 720 520" fill="none" xmlns="http://www.w3.org/2000/svg"><rect width="720" height="520" fill="transparent"/><g opacity=".95"><ellipse cx="395" cy="260" rx="250" ry="150" stroke="#1D4ED8" stroke-opacity=".35"/><ellipse cx="395" cy="260" rx="210" ry="210" stroke="#2563EB" stroke-opacity=".25"/><ellipse cx="395" cy="260" rx="140" ry="245" stroke="#2563EB" stroke-opacity=".18" transform="rotate(65 395 260)"/><path d="M140 370C260 330 390 330 640 160" stroke="url(#g1)" stroke-width="4"/><path d="M150 385C280 340 420 335 645 165" stroke="#00D4FF" stroke-opacity=".35" stroke-width="12" filter="url(#blur)"/><g stroke="#2F7CFF" stroke-opacity=".25"><path d="M180 180L300 110L460 130L610 230L520 390L330 410L180 180Z"/><path d="M300 110L330 410M460 130L330 410M610 230L180 180M520 390L300 110"/><path d="M220 300L460 130L520 390L220 300Z"/></g><g fill="#38BDF8"><circle cx="180" cy="180" r="4"/><circle cx="300" cy="110" r="4"/><circle cx="460" cy="130" r="4"/><circle cx="610" cy="230" r="4"/><circle cx="520" cy="390" r="4"/><circle cx="330" cy="410" r="4"/><circle cx="220" cy="300" r="4"/><circle cx="430" cy="260" r="5"/></g><circle cx="575" cy="335" r="36" fill="#00D4FF" opacity=".25" filter="url(#blur)"/></g><defs><linearGradient id="g1" x1="140" y1="370" x2="640" y2="160"><stop stop-color="#1D4ED8"/><stop offset="1" stop-color="#00D4FF"/></linearGradient><filter id="blur" x="0" y="0" width="720" height="520"><feGaussianBlur stdDeviation="18"/></filter></defs></svg>
